<svg width="128" height="128" viewBox="0 0 128 128" fill="none" xmlns="http://www.w3.org/2000/svg">
<path d="M116 68.33C115.15 78.2099 111.496 87.6416 105.468 95.5153C99.4402 103.389 91.2887 109.377 81.9729 112.776C72.657 116.174 62.5643 116.841 52.8823 114.699C43.2002 112.556 34.3315 107.692 27.3196 100.68C20.3076 93.6686 15.4442 84.7999 13.3015 75.1178C11.1587 65.4357 11.8258 55.343 15.2242 46.0272C18.6226 36.7114 24.6109 28.5599 32.4847 22.5318C40.3585 16.5038 49.7901 12.8499 59.67 12C60.1953 11.9567 60.724 12.0173 61.2259 12.1782C61.7278 12.3392 62.193 12.5975 62.5951 12.9383C62.9972 13.2791 63.3282 13.6957 63.5692 14.1644C63.8103 14.6331 63.9567 15.1448 64 15.67C64.0434 16.1953 63.9828 16.724 63.8218 17.2259C63.6608 17.7278 63.4026 18.193 63.0618 18.5951C62.721 18.9972 62.3043 19.3282 61.8356 19.5693C61.3669 19.8103 60.8553 19.9567 60.33 20C51.9679 20.7185 43.985 23.8104 37.3206 28.9119C30.6561 34.0133 25.5873 40.9122 22.7106 48.7967C19.834 56.6812 19.2691 65.2232 21.0824 73.4179C22.8958 81.6125 27.012 89.1188 32.9466 95.0534C38.8813 100.988 46.3875 105.104 54.5822 106.918C62.7768 108.731 71.3189 108.166 79.2034 105.289C87.0879 102.413 93.9867 97.344 99.0882 90.6795C104.19 84.015 107.282 76.0321 108 67.67C108.088 66.6092 108.593 65.6265 109.405 64.9383C110.217 64.25 111.269 63.9125 112.33 64C113.391 64.0876 114.374 64.5929 115.062 65.405C115.75 66.217 116.088 67.2692 116 68.33ZM60 36V64C60 65.0609 60.4214 66.0783 61.1716 66.8285C61.9217 67.5786 62.9391 68 64 68H92C93.0609 68 94.0783 67.5786 94.8284 66.8285C95.5786 66.0783 96 65.0609 96 64C96 62.9392 95.5786 61.9218 94.8284 61.1716C94.0783 60.4215 93.0609 60 92 60H68V36C68 34.9392 67.5786 33.9218 66.8284 33.1716C66.0783 32.4215 65.0609 32 64 32C62.9391 32 61.9217 32.4215 61.1716 33.1716C60.4214 33.9218 60 34.9392 60 36ZM80 24C81.1867 24 82.3467 23.6481 83.3334 22.9889C84.3201 22.3296 85.0892 21.3925 85.5433 20.2961C85.9974 19.1998 86.1162 17.9934 85.8847 16.8295C85.6532 15.6656 85.0818 14.5965 84.2427 13.7574C83.4035 12.9183 82.3344 12.3468 81.1706 12.1153C80.0067 11.8838 78.8003 12.0026 77.7039 12.4568C76.6076 12.9109 75.6705 13.6799 75.0112 14.6666C74.3519 15.6533 74 16.8134 74 18C74 19.5913 74.6322 21.1175 75.7574 22.2427C76.8826 23.3679 78.4087 24 80 24ZM98 36C99.1867 36 100.347 35.6481 101.333 34.9889C102.32 34.3296 103.089 33.3925 103.543 32.2961C103.997 31.1998 104.116 29.9934 103.885 28.8295C103.653 27.6656 103.082 26.5965 102.243 25.7574C101.404 24.9183 100.334 24.3468 99.1706 24.1153C98.0067 23.8838 96.8003 24.0026 95.7039 24.4568C94.6076 24.9109 93.6705 25.6799 93.0112 26.6666C92.3519 27.6533 92 28.8134 92 30C92 31.5913 92.6322 33.1175 93.7574 34.2427C94.8826 35.3679 96.4087 36 98 36ZM110 54C111.187 54 112.347 53.6481 113.333 52.9889C114.32 52.3296 115.089 51.3925 115.543 50.2961C115.997 49.1998 116.116 47.9934 115.885 46.8295C115.653 45.6656 115.082 44.5965 114.243 43.7574C113.404 42.9183 112.334 42.3468 111.171 42.1153C110.007 41.8838 108.8 42.0026 107.704 42.4568C106.608 42.9109 105.67 43.6799 105.011 44.6666C104.352 45.6533 104 46.8134 104 48C104 49.5913 104.632 51.1175 105.757 52.2427C106.883 53.3679 108.409 54 110 54Z" fill="black" fill-opacity="0.3"/>
</svg>
